<?xml version="1.0" encoding="UTF-8"?>
<svg id="Layer_2" data-name="Layer 2" xmlns="http://www.w3.org/2000/svg" viewBox="0 0 293.53 181.35">
  <defs>
    <style>
      .cls-1 {
        fill: #00a39d;
      }

      .cls-2 {
        fill: #f8ad3c;
      }
    </style>
  </defs>
  <g id="Layer_1-2" data-name="Layer 1">
    <g>
      <path class="cls-1" d="M0,52.71c25.71,2.36,84.09-9.83,94.31,22.92,4,12.82,1.34,24.92-9.51,33.2l-9.91,5.53c23.19,3.62,30.33,26.9,18.78,46.08-8.26,13.72-25.2,18.43-40.27,19.56H0S0,52.71,0,52.71ZM29.95,106.41h17.47c.47,0,6.6-1.18,7.55-1.43,14.65-3.88,15.04-23.93,2.67-28.64-.86-.33-6.75-1.75-7.23-1.75h-20.47v31.83ZM29.95,157.14h26.46c1.05,0,7.39-3.36,8.53-4.43,4.39-4.09,5.35-13.85,3.19-19.19-1.01-2.5-7.28-7.22-9.73-7.22h-28.46v30.83Z"/>
      <path class="cls-1" d="M159.75,181c-4.01.48-12.91.43-16.97,0-6.19-.66-35.02-10.7-34.96-17.39.01-1.18,6.68-11.37,8.03-12.92,7.54-8.64,14.01.01,21.58,3.31,10.65,4.64,30.48,6.4,31.35-9.34.92-16.7-27.98-17.72-39.66-24.16-23.38-12.89-22.28-46.71-1.25-61.27,14.57-10.08,37.93-9.85,53.83-3.04,3.05,1.3,13.66,6.78,12.61,10.45-.45,1.59-8.35,14.8-9.62,15.38-6.19,2.8-18.05-6.88-26.47-7.44-15.33-1.02-26.53,13.04-12.15,22.07,15.64,9.83,41.96,8.07,49.11,30.65,7.77,24.54-10.2,50.68-35.44,53.7Z"/>
      <path class="cls-1" d="M244.62,180.01h-30.95V49.73c12.12,1.42,23.64,8.6,28.14,20.2.59,1.53,2.81,9.1,2.81,10.13v99.95Z"/>
      <path class="cls-2" d="M288.55,6.97c-5.04,9.02-5.5,20.6-1.87,30.19l6.85,11.56c-12.9-3.29-26.35,3.01-34.4,12.99-1.48,1.83-.74,4.64-3.53,3.93-.62-15.5-13.48-24.73-26.96-29.34,12.53-6.7,21.54-21.97,17.98-36.29,11.95,10.97,26.99,13.05,41.92,6.97Z"/>
    </g>
  </g>
</svg>